<svg width="92" height="112" viewBox="0 0 92 112" fill="none" xmlns="http://www.w3.org/2000/svg">
<path d="M82.7439 7.83339C66.2229 19.2745 54.7554 32.627 41.542 48.0123L41.1207 48.5029M84.4301 5.98764C80.4058 24.2509 67.7204 44.6555 57.0375 61.8389L56.8821 62.0889M39.5081 75.4731L40.029 49.4015M40.5032 75.5698C45.7148 73.224 51.7911 69.6853 55.5969 64.9783M46.3751 93.2254L43.1696 109.008M54.1099 95.7786L55.3251 105.81M21.7028 51.8889L3.20744 56.122M14.8499 43.9439L23.3958 44.7733M26.3726 35.8822L79.052 86.0763C79.6556 86.6514 80.6566 86.2787 80.7371 85.4489L88.6681 3.72914C88.7447 2.93942 87.9152 2.37925 87.2113 2.74538L26.6009 34.2711C25.9923 34.5876 25.8759 35.409 26.3726 35.8822Z" stroke="#1C2B40" stroke-width="5" stroke-linecap="round"/>
</svg>
