<svg width="87" height="87" viewBox="0 0 87 87" fill="none" xmlns="http://www.w3.org/2000/svg">
<path d="M14.3645 59.5178C1.91717 53.8276 -2.19471 37.0493 13.0252 27.7686C14.2223 27.1157 10.3886 19.6154 17.8053 14.5493C20.0653 13.0055 26.8053 12.5493 28.5394 12.9394C28.8053 13.5493 29.1534 11.2548 29.618 10.496C37.8052 -1.45066 52.3052 1.04938 58.525 11.8046C59.2831 13.4629 58.9114 13.2352 60.764 12.919C69.4822 11.4305 76.2664 18.7685 74.3052 27.0493C73.8904 28.8008 75.8052 30.1314 77.2238 30.9635C89.3052 38.0493 84.3052 54.5493 74.8052 58.5493C74.2425 59.0025 74.7548 60.6925 74.8052 61.5493C75.3052 70.0493 68.2471 77.111 58.7806 73.4167C58.578 73.3376 58.1655 73.0964 57.9627 73.2991C54.7832 87.3001 35.5332 88.174 28.5746 75.4055C28.3364 74.9685 27.8262 74.7434 27.335 74.8241C23.599 75.4377 14.5169 74.3591 12.4322 67.0628M25.4314 25.1288C20.9628 28.8794 23.7438 38.6687 29.5185 39.4976C32.3393 39.9025 34.0324 38.7192 36.4456 37.2036C43.4321 32.8157 35.9322 16.3156 25.4314 25.1288ZM42.1762 51.6835C36.8464 49.3112 29.2668 56.1021 31.0533 61.6558C31.9259 64.3685 33.7317 65.3715 36.1518 66.8761C43.1583 71.232 54.7008 57.2579 42.1762 51.6835ZM67.9234 40.8264C70.6617 35.675 64.4161 27.6402 58.7513 29.0349C55.9843 29.7162 54.8578 31.4476 53.188 33.7568C48.354 40.4424 61.4889 52.9315 67.9234 40.8264Z" stroke="#1C2B40" stroke-width="5" stroke-linecap="round"/>
</svg>
