<svg width="622" height="117" viewBox="0 0 622 117" fill="none" xmlns="http://www.w3.org/2000/svg">
<path d="M321.934 5.90677C241.193 8.59542 129.053 -9.50376 52.8857 21.0448C8.67972 38.7746 16.0812 82.2602 57.3016 95.2372C118.424 114.48 190.949 105.62 253.739 100.459C316.156 95.3279 377.621 99.4686 440.024 102.159C483.887 104.049 537.174 102.719 577.871 87.4254C588.668 83.3684 604.639 76.5977 606.279 64.6779C611.953 23.4291 531.877 24.2697 503.303 22.9067C363.336 16.2304 222.136 18.3489 81.8847 15.6615C51.4327 15.078 7.99015 19.5181 3.44637 53.8303C-5.8578 124.091 132.848 114.524 180.763 112.318C261.86 108.585 343.011 106.674 424.182 109.201C478.608 110.896 546.304 118.47 592.731 87.4254C620.326 68.9728 634.479 45.6232 592.731 21.0448" stroke="#1C2B40" stroke-width="5" stroke-linecap="round"/>
</svg>
