<svg width="43" height="35" viewBox="0 0 43 35" fill="none" xmlns="http://www.w3.org/2000/svg">
<g clip-path="url(#clip0_2607_724)">
<path d="M37.1532 13.4225C35.8802 11.4075 34.5776 9.40843 33.2158 7.44107C32.5645 6.48912 31.8984 5.55304 31.2324 4.61695C30.4922 3.60154 29.5597 2.58613 29.1157 1.38033C28.7456 0.364914 30.3146 0 30.8771 0C32.1057 0 33.349 0.412511 34.326 1.2534C35.3029 2.09429 36.043 3.33182 36.8127 4.39483C37.5084 5.36265 38.1893 6.33046 38.8702 7.31414C40.2172 9.28151 41.5346 11.2647 42.7928 13.2956C43.5773 14.5331 42.1119 15.1995 41.1497 15.1995C39.8027 15.1995 37.9673 14.7076 37.1532 13.4225Z" fill="#1C2B40"/>
<path d="M22.2179 22.577C17.1852 17.3571 11.9453 12.3435 6.57211 7.50445C6.26127 7.21886 5.90602 6.69529 6.02444 6.21931C6.14285 5.74334 6.70533 5.48949 7.10499 5.39429C8.43717 5.07697 10.0062 5.63228 11.0423 6.52076C16.5191 11.2805 21.7886 16.31 26.8657 21.5616C27.1766 21.8789 27.5762 22.3866 27.443 22.9102C27.3098 23.4337 26.7325 23.6876 26.3181 23.7669C25.0007 24.0208 23.2096 23.6083 22.2179 22.5928V22.577Z" fill="#1C2B40"/>
<path d="M18.1917 34.7778C15.6458 34.0322 13.085 33.3658 10.5095 32.7946C10.2134 32.7312 9.91738 32.6677 9.62134 32.6042C8.94044 32.4614 9.84336 32.6518 9.20688 32.509C8.51118 32.3662 7.81548 32.2234 7.11979 32.0965C5.8172 31.8427 4.51462 31.6047 3.21204 31.3826C2.1759 31.1922 0.281229 30.6686 0.0295944 29.3359C-0.22204 28.0031 1.73183 27.9555 2.45713 28.0507C8.03751 28.8123 13.5735 30.0974 18.991 31.684C19.8348 31.922 21.8182 32.7788 21.4926 34.0639C21.1669 35.349 19.0058 35.0158 18.2065 34.7778H18.1917Z" fill="#1C2B40"/>
</g>
<defs>
<clipPath id="clip0_2607_724">
<rect width="43" height="35" fill="white" transform="matrix(-1 0 0 1 43 0)"/>
</clipPath>
</defs>
</svg>
