<svg width="196" height="188" viewBox="0 0 196 188" fill="none" xmlns="http://www.w3.org/2000/svg">
<path d="M88.4184 76.6331C88.828 77.2101 89.819 76.9418 89.3393 76.5455M101.16 35.329C94.0665 31.471 83.4281 30.6665 76.7311 35.6619C72.5262 38.7983 66.251 45.5137 61.7872 52.7457M61.7872 52.7457C55.0892 63.5972 52.4694 75.6119 67.0416 78.4445C78.4183 80.6559 89.0703 69.5711 80.4663 59.9255C76.1481 55.0846 68.6817 53.6736 61.7872 52.7457ZM61.7872 52.7457C59.4662 52.4333 57.2101 52.1756 55.1606 51.8603M48.286 3.16832L46.6938 9.51232M46.6938 9.51232L25.8856 92.4246M46.6938 9.51232C44.546 9.18608 42.3895 8.85803 40.2235 8.52799M46.6938 9.51232C96.7871 17.1213 142.148 23.7537 192.571 31.9612M25.8856 92.4246L2.53349 185.473M25.8856 92.4246C80.2802 92.0946 173.39 93.858 172.023 93.2078L133.721 60.4066C153.26 51.1216 172.79 41.8278 192.406 32.6738M25.8856 92.4246C23.4764 92.4392 21.1432 92.4579 18.8975 92.4811" stroke="#1C2B40" stroke-width="5" stroke-linecap="round"/>
</svg>
