<svg width="95" height="114" viewBox="0 0 95 114" fill="none" xmlns="http://www.w3.org/2000/svg">
<path d="M28.698 77.9289C29.1272 71.6846 36.5637 68.507 37.4762 61.8563C37.9368 58.499 36.2909 54.6047 32.6948 53.1546C27.2591 50.9628 18.5768 60.8487 23.2621 64.8279M29.6683 83.6633L29.6953 83.8025M46.6897 83.5329L46.5234 83.4208M47.8116 76.6695L52.2675 55.0003M75.2942 39.7922L91.6126 30.8416M31.0433 110.869C42.4637 103.108 61.4361 99.9275 70.5956 86.372C82.5962 68.612 73.351 42.9354 53.8162 34.1136C34.5507 25.4135 9.60592 34.6732 3.88884 55.0243C-1.73133 75.0305 12.0654 97.4997 34.1691 98.7808M30.965 110.466C30.7154 106.78 32.6139 102.408 34.142 99.0609M66.8652 34.2053L77.1026 25.5123M28.6975 24.9297L24.8719 2.69742M21.1567 26.2879L17.0338 17.8329" stroke="#1C2B40" stroke-width="5" stroke-linecap="round"/>
</svg>
