<svg width="196" height="65" viewBox="0 0 196 65" fill="none" xmlns="http://www.w3.org/2000/svg">
<path fill-rule="evenodd" clip-rule="evenodd" d="M28.5855 63.8295L28.5983 59.9008C28.5983 59.4798 28.8279 59.1099 29.1723 58.9186L49.2498 47.2344C53.2933 44.8873 51.6606 41.0861 48.6375 42.8209L35.3971 50.436C28.56 54.352 26.1109 37.5145 33.3306 33.3434L51.431 22.8965L51.4692 19.631L28.5983 6.41612L22.871 9.71984L38.3309 18.6488C38.6498 18.8529 38.8666 19.2101 38.8666 19.631C38.8666 20.052 38.637 20.4219 38.2926 20.626L34.8741 22.6031H34.8613C34.6955 22.6924 34.5042 22.7434 34.3128 22.7434C34.096 22.7434 33.8919 22.6924 33.7261 22.5903L17.1564 13.0236L5.71455 19.631V22.922L17.5646 29.7208C30.8688 37.3997 25.8813 64.2505 14.8604 57.8726L0.484717 49.6197C0.17858 49.4028 0.0127557 49.0584 0 48.6757V33.9557C0 33.0628 1.0077 32.4633 1.77304 32.8842L4.89819 34.6955C5.45944 35.0144 5.75282 35.7797 5.75282 36.4175L5.71455 46.0353L15.3579 51.6096C19.8351 54.1862 21.0086 38.3564 14.095 34.3766L0.548495 26.5446C0.204091 26.3278 0.0127557 25.9578 0 25.5624V16.9906C0 16.5952 0.204091 16.238 0.510228 16.0339L28.0115 0.153068C28.1773 0.0510228 28.3814 0 28.5855 0C28.7896 0 28.981 0.0510228 29.1468 0.140313L56.6608 16.0212C56.967 16.2253 57.1711 16.5824 57.1838 16.9778L57.1583 25.6262C57.1328 26.0726 56.9542 26.4043 56.597 26.6211L37.0553 37.9099C33.3306 40.0657 34.4149 44.9383 36.966 43.4587L49.288 36.4558C56.9159 32.1189 61.1253 47.0685 51.4948 52.6555L30.2948 64.8627C29.5294 65.2709 28.5983 64.7224 28.5983 63.8295H28.5855Z" fill="#1C2B40"/>
<path d="M71.0895 27.0814H72.2758C73.6534 27.0814 74.7759 26.8773 75.656 26.4691C76.5362 26.061 77.1867 25.4104 77.5949 24.5175C78.0158 23.6246 78.2327 22.4511 78.2327 20.9842C78.2327 19.5428 78.0286 18.3948 77.6204 17.5529C77.2122 16.7238 76.5745 16.1115 75.6943 15.7544C74.8269 15.3972 73.6789 15.2186 72.263 15.2186H71.0895V27.0814ZM188.799 31.2015C187.307 31.2015 186.031 30.9081 184.972 30.3086C183.914 29.7091 183.11 28.8545 182.549 27.7192C181.988 26.5839 181.707 25.2191 181.707 23.6119C181.707 21.9536 182.013 20.5505 182.6 19.4152C183.199 18.2672 184.041 17.4126 185.125 16.8258C186.21 16.2391 187.473 15.9457 188.927 15.9457C190.33 15.9457 191.516 16.2136 192.473 16.7365C193.442 17.2723 194.169 18.0631 194.654 19.0963C195.151 20.1296 195.407 21.4051 195.407 22.9231C195.407 23.1144 195.394 23.3312 195.381 23.5736C195.368 23.8287 195.356 24.1093 195.33 24.4282H185.84C185.942 25.6528 186.235 26.5457 186.733 27.1069C187.23 27.6682 187.919 27.9616 188.812 27.9616C189.552 27.9616 190.113 27.7957 190.496 27.4641C190.891 27.1452 191.108 26.7115 191.184 26.1885H195.215C195.139 27.1962 194.82 28.0891 194.284 28.8417C193.748 29.5943 193.021 30.181 192.09 30.5892C191.159 30.9974 190.062 31.2015 188.799 31.2015ZM187.562 22.0557H191.363C191.325 21.1117 191.095 20.3974 190.674 19.9382C190.253 19.4663 189.615 19.2239 188.748 19.2239C187.728 19.2239 186.988 19.5938 186.516 20.3209C186.044 21.048 185.802 22.0812 185.802 23.4078C185.865 22.8975 186.044 22.5404 186.324 22.349C186.605 22.1577 187.013 22.0557 187.562 22.0557ZM173.709 31.2525C172.153 31.2525 170.865 30.9336 169.819 30.2831C168.773 29.6453 167.982 28.7397 167.459 27.5789C166.936 26.4309 166.668 25.0788 166.668 23.5481C166.668 21.9791 166.949 20.627 167.497 19.4918C168.033 18.3565 168.836 17.4764 169.87 16.8641C170.916 16.2646 172.166 15.9584 173.633 15.9584C175.087 15.9584 176.273 16.2008 177.217 16.6983C178.174 17.1957 178.862 17.8718 179.322 18.7392C179.768 19.5938 179.972 20.576 179.908 21.6602H175.839C175.827 21.2521 175.763 20.8949 175.661 20.5888C175.571 20.2826 175.431 20.0403 175.24 19.8489C175.061 19.6448 174.832 19.5045 174.564 19.4152C174.296 19.3132 173.99 19.2749 173.633 19.2749C172.689 19.2749 171.987 19.6066 171.528 20.3081C171.069 20.9969 170.839 22.0557 170.839 23.4715C170.839 25.0277 171.094 26.1375 171.604 26.8135C172.127 27.4768 172.854 27.8468 173.786 27.885C174.156 27.9105 174.513 27.8468 174.844 27.7064C175.176 27.5789 175.444 27.3493 175.648 27.0304C175.865 26.7115 175.954 26.2906 175.954 25.7676H179.972C179.998 26.8518 179.768 27.8212 179.283 28.6376C178.786 29.4667 178.084 30.1045 177.14 30.5637C176.196 31.0229 175.048 31.2525 173.709 31.2525ZM156.017 30.9974V16.2391H159.767L159.997 20.3081C160.086 19.8107 160.175 19.4535 160.328 19.0198C160.545 18.382 160.826 17.8335 161.17 17.3743C161.502 16.9151 161.923 16.558 162.408 16.3028C162.88 16.0605 163.441 15.9329 164.053 15.9329C164.244 15.9329 164.423 15.9329 164.614 15.9584C164.793 15.9712 164.959 16.0095 165.099 16.0477V20.4229C164.793 20.3336 164.499 20.2826 164.219 20.2444C163.938 20.2188 163.645 20.2061 163.364 20.2061C162.88 20.2061 162.42 20.2444 162.025 20.3336C161.617 20.4357 161.272 20.5633 160.979 20.7546C160.673 20.9332 160.43 21.1755 160.226 21.4562V30.9974H156.017ZM146.246 31.2015C144.805 31.2015 143.567 30.9081 142.509 30.3214C141.45 29.7346 140.634 28.8672 140.06 27.732C139.473 26.5967 139.179 25.1936 139.179 23.5353C139.179 21.9664 139.486 20.6143 140.098 19.479C140.71 18.331 141.565 17.4636 142.636 16.8513C143.708 16.2518 144.932 15.9457 146.297 15.9457C147.777 15.9457 149.04 16.2518 150.098 16.8513C151.144 17.4636 151.948 18.331 152.522 19.479C153.07 20.6143 153.364 21.9664 153.364 23.5353C153.364 25.1936 153.045 26.5967 152.42 27.732C151.808 28.8672 150.953 29.7346 149.881 30.3214C148.81 30.9081 147.598 31.2015 146.246 31.2015ZM146.297 27.7192C147.113 27.7192 147.802 27.4131 148.351 26.8135C148.899 26.2013 149.18 25.1043 149.18 23.5353C149.18 22.0557 148.899 21.0097 148.325 20.3719C147.751 19.7341 147.062 19.4152 146.259 19.4152C145.442 19.4152 144.754 19.7341 144.205 20.3719C143.657 21.0097 143.376 22.0557 143.376 23.5353C143.376 25.0405 143.669 26.1247 144.243 26.7625C144.817 27.4003 145.506 27.7192 146.297 27.7192ZM126.424 30.9974V11.3281H137.917L137.942 15.2186H130.71V19.53H137.215V23.4205H130.71V30.9974H126.424ZM114.612 31.1632C113.783 31.1632 113.017 30.9974 112.341 30.6913C111.653 30.3724 111.117 29.9132 110.721 29.2882C110.326 28.6759 110.122 27.9233 110.122 27.0304C110.122 26.1375 110.313 25.4104 110.67 24.8364C111.04 24.2497 111.538 23.8032 112.163 23.4715C112.801 23.1399 113.515 22.8975 114.306 22.7317C114.842 22.6297 115.39 22.5404 115.951 22.4639C116.513 22.3873 117.048 22.3363 117.546 22.2853C118.043 22.247 118.477 22.2087 118.821 22.1832V21.775C118.821 20.8311 118.668 20.1806 118.362 19.7979C118.043 19.4152 117.507 19.2239 116.729 19.2239C116.232 19.2239 115.811 19.3004 115.479 19.428C115.135 19.5683 114.893 19.8107 114.714 20.1678C114.548 20.5122 114.472 21.0097 114.484 21.6602H110.505C110.39 20.3719 110.594 19.2877 111.117 18.4458C111.627 17.6039 112.38 16.9789 113.375 16.5707C114.37 16.1625 115.53 15.9584 116.857 15.9584C117.635 15.9584 118.388 16.0477 119.127 16.2008C119.855 16.3794 120.505 16.66 121.079 17.0554C121.666 17.4636 122.125 18.0121 122.457 18.7009C122.801 19.4025 122.967 20.2699 122.967 21.3413V30.9974H118.796L118.821 27.5534C118.656 28.5356 118.26 29.3902 117.61 30.0918C116.959 30.8061 115.964 31.1632 114.612 31.1632ZM116.015 28.3697C116.449 28.3697 116.87 28.2932 117.278 28.1274C117.673 27.9616 118.018 27.7192 118.298 27.4258C118.579 27.1452 118.745 26.8135 118.821 26.4564V24.1221C118.464 24.1859 118.094 24.2369 117.724 24.3007C117.354 24.3645 117.036 24.4282 116.755 24.5048C115.849 24.7089 115.237 24.9767 114.905 25.3211C114.561 25.6655 114.395 26.1247 114.395 26.686C114.395 27.0304 114.459 27.3365 114.586 27.5916C114.701 27.8468 114.893 28.0381 115.135 28.1656C115.377 28.306 115.671 28.3697 116.015 28.3697ZM104.867 31.176C103.642 31.176 102.698 30.8699 102.022 30.2448C101.346 29.6326 101.002 28.6759 100.989 27.3748L100.951 20.7673C100.951 20.4357 101.053 20.1551 101.244 19.9382C101.435 19.7214 101.716 19.5811 102.06 19.5173H99.3816V16.2391H100.976L101.729 12.0042H105.147V16.2391H108.196V19.5173H105.147V26.0737C105.147 26.7115 105.224 27.1452 105.39 27.3876C105.543 27.6299 105.849 27.7575 106.295 27.7575C106.742 27.7575 107.124 27.7447 107.43 27.7192C107.724 27.7064 108.017 27.6809 108.285 27.6299V30.9464C107.966 31.0612 107.469 31.125 106.831 31.1505C106.18 31.1632 105.53 31.176 104.867 31.176ZM89.075 31.1632C88.2332 31.1632 87.4806 30.9974 86.8045 30.6913C86.1157 30.3724 85.58 29.9132 85.1846 29.2882C84.7891 28.6759 84.585 27.9233 84.585 27.0304C84.585 26.1375 84.7636 25.4104 85.1335 24.8364C85.4907 24.2497 86.0009 23.8032 86.6259 23.4715C87.2637 23.1399 87.9653 22.8975 88.7689 22.7317C89.2919 22.6297 89.8531 22.5404 90.4144 22.4639C90.9756 22.3873 91.4986 22.3363 92.0089 22.2853C92.5063 22.247 92.9273 22.2087 93.2844 22.1832V21.775C93.2844 20.8311 93.1313 20.1806 92.8125 19.7979C92.5063 19.4152 91.9578 19.2239 91.1925 19.2239C90.695 19.2239 90.2741 19.3004 89.9424 19.428C89.598 19.5683 89.3429 19.8107 89.1771 20.1678C89.0113 20.5122 88.9347 21.0097 88.9347 21.6602H84.9677C84.8529 20.3719 85.057 19.2877 85.5672 18.4458C86.0902 17.6039 86.8428 16.9789 87.8377 16.5707C88.8199 16.1625 89.9807 15.9584 91.32 15.9584C92.0981 15.9584 92.8507 16.0477 93.5778 16.2008C94.3049 16.3794 94.9682 16.66 95.5422 17.0554C96.1162 17.4636 96.5754 18.0121 96.9198 18.7009C97.2514 19.4025 97.4173 20.2699 97.4173 21.3413V30.9974H93.2589L93.2844 27.5534C93.1186 28.5356 92.7104 29.3902 92.0726 30.0918C91.4221 30.8061 90.4271 31.1632 89.075 31.1632ZM90.4654 28.3697C90.9119 28.3697 91.3328 28.2932 91.741 28.1274C92.1364 27.9616 92.4808 27.7192 92.7487 27.4258C93.0293 27.1452 93.2079 26.8135 93.2844 26.4564V24.1221C92.9273 24.1859 92.5573 24.2369 92.1874 24.3007C91.8175 24.3645 91.4986 24.4282 91.218 24.5048C90.3123 24.7089 89.7001 24.9767 89.3557 25.3211C89.024 25.6655 88.8582 26.1247 88.8582 26.686C88.8582 27.0304 88.922 27.3365 89.0495 27.5916C89.1643 27.8468 89.3429 28.0381 89.5853 28.1656C89.8276 28.306 90.121 28.3697 90.4654 28.3697ZM69.9798 11.3281H71.0895H72.9263C75.0055 11.3281 76.7785 11.698 78.2199 12.4251C79.6613 13.1522 80.7711 14.2364 81.5237 15.6523C82.289 17.0809 82.6589 18.8412 82.6589 20.9332C82.6589 23.0506 82.2763 24.8492 81.4854 26.3543C80.7073 27.8468 79.5848 29.0075 78.1562 29.7984C76.7148 30.602 75.0055 30.9974 73.0411 30.9974H71.0895H70.0818H66.7781V11.3281H69.9798Z" fill="#1C2B40"/>
<path d="M179.506 53.6135C178.237 53.6135 177.145 53.4414 176.244 53.0848C175.33 52.7282 174.619 52.1749 174.124 51.4494C173.616 50.724 173.337 49.8018 173.286 48.6829H177.361C177.45 49.3837 177.678 49.9002 178.059 50.2199C178.44 50.5518 178.96 50.724 179.595 50.724C179.925 50.724 180.23 50.6871 180.535 50.6133C180.827 50.5395 181.068 50.4043 181.258 50.2199C181.449 50.0354 181.537 49.7772 181.537 49.4452C181.537 49.1747 181.461 48.9534 181.334 48.7812C181.195 48.6091 180.992 48.4738 180.725 48.3509C180.458 48.2279 180.141 48.1295 179.76 48.0312C179.392 47.9205 178.961 47.8099 178.478 47.6746C177.64 47.4287 176.853 47.1336 176.13 46.777C175.393 46.4327 174.797 45.9655 174.353 45.3876C173.908 44.8097 173.68 44.035 173.68 43.0882C173.68 41.6742 174.213 40.6291 175.292 39.9405C176.358 39.2519 177.767 38.9076 179.506 38.9076C180.535 38.9076 181.449 39.0429 182.261 39.3134C183.086 39.5839 183.759 40.0634 184.292 40.7397C184.825 41.4283 185.168 42.3997 185.32 43.6538L181.271 43.6293C181.195 43.0759 181.055 42.6579 180.852 42.3751C180.662 42.1046 180.433 41.9201 180.179 41.8341C179.925 41.7357 179.671 41.6988 179.405 41.6988C179.1 41.6988 178.821 41.748 178.58 41.8341C178.326 41.9324 178.135 42.08 177.983 42.2521C177.843 42.4365 177.767 42.6702 177.767 42.953C177.767 43.285 177.882 43.5555 178.097 43.8014C178.313 44.035 178.643 44.2317 179.075 44.4162C179.519 44.6006 180.078 44.7728 180.763 44.9572C181.207 45.0679 181.715 45.2031 182.274 45.3753C182.832 45.5351 183.378 45.7687 183.886 46.0638C184.406 46.3589 184.838 46.7647 185.168 47.2688C185.511 47.773 185.676 48.4247 185.676 49.2239C185.676 50.6133 185.117 51.6954 184.013 52.4577C182.908 53.2323 181.41 53.6135 179.506 53.6135ZM158.015 53.3922V39.1658H161.76L162.014 43.0636C162.141 42.3997 162.306 41.8218 162.585 41.2193C162.903 40.5184 163.372 39.9528 163.994 39.5224C164.616 39.0798 165.441 38.8707 166.47 38.8707C167.815 38.8707 168.894 39.2888 169.707 40.1249C170.506 40.961 170.912 42.2398 170.912 43.9612V53.3922H166.736V45.4736C166.736 44.576 166.647 43.8875 166.495 43.4079C166.33 42.9407 166.101 42.6087 165.797 42.4366C165.505 42.2644 165.162 42.1783 164.756 42.1783C164.172 42.1783 163.677 42.3505 163.233 42.7071C162.788 43.0513 162.458 43.4694 162.217 43.9489V53.3922H158.015ZM148.304 53.5889C146.87 53.5889 145.639 53.3061 144.585 52.7405C143.532 52.1749 142.719 51.3388 142.148 50.2444C141.564 49.1501 141.272 47.7976 141.272 46.1991C141.272 44.6867 141.577 43.3833 142.186 42.289C142.795 41.1824 143.633 40.3462 144.712 39.756C145.778 39.1781 146.997 38.883 148.355 38.883C149.828 38.883 151.084 39.1781 152.138 39.756C153.179 40.3462 153.979 41.1824 154.537 42.289C155.096 43.3833 155.388 44.6867 155.388 46.1991C155.388 47.7976 155.07 49.1501 154.448 50.2444C153.839 51.3388 152.989 52.1749 151.922 52.7405C150.856 53.3061 149.65 53.5889 148.304 53.5889ZM148.355 50.2321C149.168 50.2321 149.853 49.937 150.399 49.3591C150.945 48.7689 151.224 47.7115 151.224 46.1991C151.224 44.7728 150.945 43.7645 150.374 43.1497C149.802 42.5349 149.117 42.2275 148.317 42.2275C147.492 42.2275 146.819 42.5349 146.273 43.1497C145.728 43.7645 145.448 44.7728 145.448 46.1991C145.448 47.65 145.74 48.6952 146.311 49.31C146.883 49.9247 147.568 50.2321 148.355 50.2321ZM134.468 53.3922V39.1658H138.632V53.3922H134.468ZM136.562 37.5428C135.864 37.5428 135.268 37.2969 134.773 36.8296C134.278 36.3501 134.036 35.7476 134.036 35.0098C134.036 34.2721 134.278 33.6696 134.773 33.2023C135.268 32.7351 135.864 32.5015 136.562 32.5015C137.248 32.5015 137.845 32.7351 138.34 33.2023C138.835 33.6696 139.076 34.2721 139.076 35.0098C139.076 35.7476 138.835 36.3501 138.34 36.8296C137.845 37.2969 137.248 37.5428 136.562 37.5428ZM128.794 53.5643C127.588 53.5643 126.636 53.2692 125.963 52.6667C125.29 52.0765 124.947 51.1543 124.947 49.9002L124.909 43.5309C124.909 43.2112 124.998 42.9407 125.201 42.7317C125.392 42.5226 125.658 42.3874 126.014 42.3259H123.348V39.1658H124.922L125.671 35.0836H129.073V39.1658H132.107V42.3259H129.073V48.646C129.073 49.2608 129.162 49.6788 129.314 49.9125C129.467 50.1461 129.771 50.269 130.215 50.269C130.672 50.269 131.041 50.2567 131.345 50.2321C131.65 50.2199 131.929 50.1953 132.196 50.1461V53.343C131.878 53.4537 131.396 53.5152 130.761 53.5397C130.114 53.552 129.454 53.5643 128.794 53.5643ZM112.507 53.675C111.174 53.675 110.146 53.2446 109.41 52.3962C108.674 51.5478 108.306 50.2444 108.306 48.5107V39.1535H112.507V47.1582C112.507 48.0435 112.584 48.7075 112.736 49.1747C112.875 49.6297 113.079 49.9493 113.358 50.1092C113.624 50.2813 113.942 50.3674 114.323 50.3674C114.881 50.3674 115.376 50.1953 115.833 49.8387C116.29 49.4944 116.633 49.0763 116.849 48.5968V39.1535H121.05V53.3922H117.344L117.065 49.4575C116.95 50.1338 116.76 50.7117 116.481 51.3265C116.163 52.0151 115.681 52.5807 115.059 53.0233C114.424 53.4537 113.574 53.675 112.507 53.675ZM100.638 53.3922V33.0302H104.84V53.3922H100.638ZM90.9148 53.5889C89.4804 53.5889 88.2491 53.3061 87.1955 52.7405C86.1419 52.1749 85.3295 51.3388 84.7582 50.2444C84.1743 49.1501 83.8824 47.7976 83.8824 46.1991C83.8824 44.6867 84.187 43.3833 84.7963 42.289C85.4056 41.1824 86.2434 40.3462 87.3224 39.756C88.3887 39.1781 89.6074 38.883 90.9656 38.883C92.4381 38.883 93.6948 39.1781 94.7484 39.756C95.7893 40.3462 96.5891 41.1824 97.1476 42.289C97.7061 43.3833 97.9981 44.6867 97.9981 46.1991C97.9981 47.7976 97.6807 49.1501 97.0587 50.2444C96.4494 51.3388 95.5989 52.1749 94.5326 52.7405C93.4663 53.3061 92.2604 53.5889 90.9148 53.5889ZM90.9656 50.2321C91.778 50.2321 92.4635 49.937 93.0093 49.3591C93.5552 48.7689 93.8345 47.7115 93.8345 46.1991C93.8345 44.7728 93.5552 43.7645 92.984 43.1497C92.4127 42.5349 91.7273 42.2275 90.9275 42.2275C90.1024 42.2275 89.4296 42.5349 88.8838 43.1497C88.3253 43.7645 88.0587 44.7728 88.0587 46.1991C88.0587 47.65 88.3506 48.6952 88.9219 49.31C89.4931 49.9247 90.1786 50.2321 90.9656 50.2321ZM74.565 53.6504C73.0671 53.6504 71.7215 53.4291 70.5282 52.9618C69.3223 52.5192 68.3956 51.806 67.7102 50.8469C67.0374 49.9002 66.7327 48.6706 66.7835 47.1828H70.9598C70.9725 47.8099 71.1122 48.3509 71.3661 48.7935C71.6199 49.2362 72.0134 49.5682 72.5466 49.8018C73.0924 50.0354 73.7906 50.1461 74.6538 50.1461C75.352 50.1461 75.9232 50.0723 76.3675 49.937C76.8245 49.8018 77.1545 49.5928 77.3576 49.3223C77.5734 49.0517 77.675 48.7075 77.675 48.314C77.675 47.859 77.5354 47.4902 77.2434 47.2074C76.9641 46.9123 76.5071 46.6417 75.8978 46.3958C75.2758 46.1376 74.4888 45.8548 73.524 45.5351C72.3181 45.1171 71.2645 44.6498 70.3632 44.1211C69.462 43.6047 68.7638 42.9653 68.2687 42.2029C67.7736 41.4529 67.5325 40.5184 67.5325 39.4118C67.5325 37.6903 68.1418 36.387 69.3858 35.4771C70.6044 34.5795 72.2927 34.1368 74.4126 34.1368C75.847 34.1368 77.053 34.3458 78.0304 34.7885C78.9952 35.2312 79.7441 35.8828 80.2519 36.7558C80.7723 37.6289 81.077 38.6986 81.1658 39.9897H77.0784C77.053 39.4855 76.9514 39.0552 76.7483 38.7109C76.5452 38.3666 76.2405 38.0961 75.8597 37.9117C75.4789 37.7272 74.9965 37.6411 74.4253 37.6411C73.5494 37.6411 72.8893 37.7764 72.4323 38.0469C71.9754 38.3297 71.7469 38.7601 71.7469 39.3503C71.7469 39.7929 71.8484 40.1741 72.0642 40.4692C72.2673 40.7889 72.6355 41.0717 73.1559 41.3422C73.6764 41.6127 74.3999 41.9201 75.3266 42.2398C76.1898 42.5472 77.0149 42.8423 77.8019 43.1374C78.6017 43.4325 79.3125 43.7645 79.9345 44.1703C80.5692 44.5637 81.0643 45.0556 81.4324 45.6581C81.7878 46.2606 81.9783 47.0229 81.9783 47.9574C81.9783 49.851 81.3182 51.2773 79.9726 52.2241C78.627 53.1709 76.8245 53.6504 74.565 53.6504Z" fill="#1C2B40"/>
</svg>
